<svg xmlns="http://www.w3.org/2000/svg" viewBox="0 0 100 100">
  <!-- Red segment -->
  <path d="M50 50 L50 8 A42 42 0 0 1 86.4 29 Z" fill="#EA4335"/>
  <!-- Yellow segment -->
  <path d="M50 50 L86.4 29 A42 42 0 0 1 86.4 71 Z" fill="#FBBC05"/>
  <!-- Green segment -->
  <path d="M50 50 L86.4 71 A42 42 0 0 1 13.6 71 Z" fill="#34A853"/>
  <!-- Blue segment -->
  <path d="M50 50 L13.6 71 A42 42 0 0 1 13.6 29 Z" fill="#4285F4"/>
  <!-- Back to red to close -->
  <path d="M50 50 L13.6 29 A42 42 0 0 1 50 8 Z" fill="#EA4335"/>
  <!-- White ring -->
  <circle cx="50" cy="50" r="22" fill="white"/>
  <!-- Blue center -->
  <circle cx="50" cy="50" r="17" fill="#4285F4"/>
</svg>
