<svg width="529" height="146" viewBox="0 0 529 146" fill="none" xmlns="http://www.w3.org/2000/svg">
<path d="M435.633 145.245C430.973 143.766 427.722 140.799 425.949 136.424C425.332 134.905 425.23 133.821 425.23 130.427C425.269 125.981 425.847 123.671 427.832 120.491C430.577 116.045 436.289 111.923 443.227 109.471L444.96 108.854L442.428 108.063C439.501 107.193 435.957 104.954 434.406 102.968C433.789 102.209 432.888 100.69 432.381 99.5742L431.479 97.5885L428.442 99.8669C422.516 104.345 415.143 107.382 406.9 108.791C403.102 109.439 401.338 109.511 395.373 109.408C388.831 109.265 388.111 109.194 385.437 108.253C381.893 107.058 379.693 105.689 377.526 103.34C374.812 100.452 374.274 98.8622 374.235 93.9415C374.235 90.3261 374.345 89.6379 374.955 88.8072C376.22 87.1459 377.344 86.7108 380.516 86.7108C383.23 86.7108 383.514 86.7819 384.638 87.7946C385.429 88.4828 386.157 89.6774 386.663 91.0144C388.324 95.6424 391.726 96.2911 395.555 92.8181C397.723 90.7929 399.281 88.0082 400.215 84.3612C401.916 77.787 401.156 72.1464 396.852 58.8795C395.84 55.81 394.827 52.1234 394.574 50.6757C394.36 49.2675 393.997 48.1837 393.854 48.2549C393.387 48.5476 389.551 54.3623 387.351 58.1596C386.228 60.0424 382.976 65.9995 380.089 71.4265C371.308 87.8341 367.186 94.0523 361.26 99.9065C354.394 106.734 346.807 109.882 338.603 109.376C331.23 108.909 325.589 106.156 322.156 101.315L320.495 99.0046L318.691 100.524C315.297 103.451 313.161 104.898 309.909 106.449C305.432 108.585 302.932 109.123 297.26 109.123C291.872 109.123 289.309 108.435 285.765 106.085C282.727 104.06 279.839 99.9065 278.605 95.856L278.17 94.3371L275.678 96.6155C265.773 105.792 253.234 110.238 238.71 109.732C228.916 109.368 222.808 107.098 217.532 101.821C214.786 99.0758 213.307 96.6155 211.677 92.027C211.464 91.4495 211.211 91.5207 209.367 92.7865C206.511 94.701 204.85 95.5316 201.67 96.5126C199.32 97.2721 198.276 97.3828 193.719 97.3433C189.597 97.3037 188.007 97.1613 186.346 96.6234L184.21 95.9351L181.101 99.0046C176.117 103.957 170.437 107.39 164.369 109.162C160.572 110.246 152.336 110.539 148.143 109.669C142.542 108.545 137.226 105.658 134.378 102.185C132.606 100.017 130.652 96.3702 129.932 93.8387C129.315 91.6315 129.315 91.671 127.4 93.0792C122.337 96.8053 113.595 98.4666 106.618 97.0585C104.957 96.6946 103.366 96.299 103.113 96.1566C102.789 96.0142 101.523 96.9873 99.4663 98.973C95.7085 102.66 91.84 105.405 87.7183 107.319C83.1299 109.455 81.1046 109.882 74.7045 110.104C69.7205 110.286 68.5972 110.215 65.6305 109.526C61.5484 108.585 57.9726 106.924 55.2195 104.685C52.9411 102.802 49.9428 98.617 48.9697 95.8639L48.321 94.0602L45.6866 97.2009C40.5523 103.308 35.244 106.781 28.0132 108.656C25.2681 109.376 16.9535 109.447 14.0976 108.799C5.17386 106.663 0 100.381 0 91.671C0 86.0304 0.57751 84.1871 7.9111 66.846C10.1499 61.5693 13.441 53.761 15.2447 49.4969C17.0484 45.2329 19.3664 39.703 20.4502 37.211C21.534 34.719 22.4042 32.5514 22.4042 32.4406C22.4042 32.3299 20.5214 32.1479 18.2114 32.0767L14.0185 31.9659L12.9742 30.7714C12.0328 29.7271 11.9299 29.3236 11.9299 27.2667C11.9299 25.2099 12.0407 24.8064 12.9426 23.7938L13.9868 22.6388L20.4581 22.3144C24.0023 22.1324 27.0322 21.8793 27.143 21.7369C27.2537 21.5945 29.1287 17.362 31.2647 12.3069C35.6712 2.0066 36.3278 1.03354 39.4289 0.384828C41.739 -0.121483 52.767 -0.121482 54.0645 0.345273C55.5834 0.922783 55.979 1.75345 56.0185 4.1426C56.0185 6.05709 55.6942 7.06971 53.0914 12.9951C51.5013 16.6817 50.0931 19.9015 49.9823 20.1151C49.8399 20.479 50.995 20.5819 55.1166 20.5819C59.8158 20.5819 60.6069 20.6531 61.6196 21.3018C63.5024 22.4568 64.0799 23.9757 63.9296 27.156C63.7872 29.5056 63.6369 30.0831 62.8853 30.8821C60.9313 32.9786 60.4962 33.0498 52.1895 32.939L44.5632 32.8678L43.2658 35.8345C36.7233 50.7627 29.5717 67.1703 27.1113 72.985C21.4391 86.426 20.6401 88.8151 21.3283 90.9115C22.8789 95.5712 28.9151 94.0206 36.2566 87.1142C41.027 82.597 47.3479 73.5229 48.8352 69.0769C50.3858 64.267 53.4949 57.6928 55.7733 54.2594C62.7825 43.7772 71.4214 37.2031 81.8641 34.4184C85.0048 33.5877 86.1994 33.477 91.2625 33.4453C97.6942 33.4058 99.8618 33.8092 104.094 35.8661C107.346 37.4562 111.539 41.6096 113.2 44.9718C115.621 49.7817 116.087 51.8782 116.309 58.7055C116.523 66.9488 115.55 72.1464 112.583 79.1636C111.104 82.5574 111.103 82.5574 115.296 82.5574C118.983 82.5574 120.826 81.616 124.513 77.8582C128.017 74.3141 129.283 72.2572 131.308 66.6561C134.236 58.6343 137.455 53.2152 142.874 47.179C151.331 37.7806 162.605 32.8282 174.384 33.3346C181.939 33.6589 186.781 35.5734 190.974 39.8375C195.602 44.5367 197.588 49.7026 197.952 57.8352C198.276 65.24 197.081 72.2176 194.305 78.8708C193.513 80.7853 193.181 81.9799 193.403 82.1935C193.616 82.4071 195.104 82.5574 196.725 82.5574C200.341 82.5179 202.216 81.7268 205.325 78.8313C208.434 75.9754 210.673 72.3996 212.302 67.7399C214.035 62.8271 216.171 58.4523 218.623 54.8053C225.854 44.1095 234.817 37.1002 245.402 33.8804C248.44 32.939 256.351 32.583 259.571 33.2317C266.509 34.5687 271.857 39.2995 273.447 45.5177C274.238 48.6267 273.993 54.5521 272.901 57.59C270.227 65.2163 261.699 72.2967 251.003 75.8409C246.85 77.2174 239.873 78.6256 234.556 79.1636C232.278 79.3772 230.221 79.5987 229.999 79.6699C229.422 79.8518 230.039 83.1745 231.123 85.5241C232.167 87.8341 234.809 90.7296 237.048 91.9954C239.034 93.1188 243.448 94.3054 245.576 94.3054C249.659 94.3054 256.241 92.5333 260.758 90.2233C268.819 86.07 277.094 77.1779 279.911 69.694C284.032 58.6738 287.861 52.4557 294.514 45.9528C299.831 40.7868 305.606 37.1002 311.357 35.2886C315.692 33.9121 319.379 33.4453 323.572 33.6985C329.537 34.0624 332.749 35.2886 336.111 38.5084L338.168 40.4625L338.999 38.6587C339.94 36.6335 341.237 35.2649 342.725 34.719C344.022 34.2127 358.333 34.1731 359.243 34.6794C360.216 35.1858 360.794 37.3138 360.509 39.2679C360.366 40.2093 358.919 43.9671 357.257 47.6537C349.955 64.1008 340.636 86.5051 339.948 89.2898C339.695 90.4843 340.921 92.47 342.408 93.1583C347.685 95.7215 359.393 84.2662 368.032 68.0801C377.969 49.5444 380.287 45.7075 385.666 39.0226C392.24 30.8584 397.588 27.2035 403.553 26.8079C407.2 26.5943 409.265 27.243 410.887 29.0863C412.841 31.3251 413.094 33.3899 412.153 39.6397C411.179 46.111 411.939 49.9716 416.377 61.1104C420.428 71.2287 421.076 73.7919 421.29 80.2316C421.401 83.3406 421.329 86.3389 421.076 87.6047C420.863 88.7993 420.752 89.8119 420.823 89.9148C421.219 90.2787 429.391 81.529 431.519 78.4911C435.997 72.1306 436.179 71.735 444.746 51.4984C447.855 44.1649 450.782 37.5828 451.289 36.9341C453.061 34.545 454.073 34.3314 462.602 34.3314C471.13 34.3314 471.351 34.4026 471.85 37.0765C472.214 38.9198 471.707 40.5811 468.923 46.7993C464.801 56.0473 454.793 79.5037 453.385 83.3011C452.626 85.2868 451.937 87.8579 451.835 88.9733C451.692 90.959 451.724 91.1093 452.958 92.3355C454.619 93.9969 455.632 93.9652 459.358 92.1219C461.708 90.9274 463.045 89.9147 466.011 86.956C472.332 80.7062 473.416 78.7522 483.392 55.4777C490.765 38.3106 491.382 37.0449 493.115 35.6367L494.491 34.5133L502.442 34.4026C510.25 34.2918 510.432 34.2918 511.263 35.0908C512.022 35.7791 512.133 36.2458 512.133 38.2711C512.133 40.4387 511.919 41.1982 509.57 46.4353C508.162 49.6156 503.755 59.7023 499.776 68.8396C495.797 77.9848 491.359 88.2139 489.871 91.5682C488.392 94.8908 487.237 97.7151 487.34 97.8179C487.957 98.4667 496.089 94.9304 500.021 92.3276C505.44 88.7123 512.347 80.7616 516.967 72.7002C519.277 68.7605 519.894 68.2937 523.003 68.2937C525.099 68.2937 525.606 68.4361 526.547 69.2351C528.825 71.1496 528.968 75.5561 526.871 79.9705C526.183 81.4182 524.561 84.3058 523.256 86.4022C515.559 98.9809 507.394 106.061 495.18 110.76C491.493 112.208 482.601 114.558 480.94 114.558C480.038 114.558 479.816 114.811 479.136 116.472C478.701 117.485 477.435 120.23 476.32 122.508C469.848 135.696 461.755 142.856 450.442 145.419C446.645 146.25 438.591 146.178 435.664 145.277L435.633 145.245ZM444.485 132.919C446.692 131.946 449.651 129.344 451.534 126.701C453.377 124.099 455.838 119.945 455.656 119.763C455.442 119.55 450.672 120.634 448.14 121.464C442.974 123.126 439.106 125.8 437.626 128.695C436.756 130.396 436.756 130.831 437.737 132.057C439.327 134.082 441.242 134.336 444.493 132.927L444.485 132.919ZM79.5145 92.9526C82.9875 91.7264 87.4651 88.1822 89.7435 84.82L91.0805 82.9055L90.503 81.2758C89.7119 79.0686 89.3796 71.1892 89.9571 68.1909C90.859 63.6341 93.6437 59.3383 96.8635 57.4951L98.6356 56.4824L97.9157 54.8923C96.468 51.6013 93.2877 49.3308 90.329 49.3624C85.1946 49.4336 78.7629 53.9509 74.4672 60.5329C64.8552 75.208 64.8157 90.8878 74.396 93.4194C76.2393 93.8861 77.0304 93.8149 79.5303 92.9526H79.5145ZM162.818 92.2643C166.869 90.2787 173.19 83.8786 172.541 82.3992C171.244 79.3613 170.88 71.1575 171.853 67.3998C173.047 62.7718 175.429 59.2671 178.577 57.4634L180.31 56.4904L179.479 54.6866C174.748 44.6 161.624 49.6631 153.491 64.7337C150.422 70.3743 148.286 78.6493 148.76 82.8739C149.409 88.6173 151.98 92.3751 156.023 93.3877C158.08 93.9336 160.144 93.5697 162.818 92.2643ZM303.834 91.4732C309.15 89.3056 314.925 84.6776 319.735 78.7522C322.124 75.7855 323.382 73.7682 325.447 69.5358C328.77 62.7797 330.866 56.8147 330.51 54.9319C330.146 53.0174 328.777 51.4272 326.863 50.7073C325.384 50.1615 324.948 50.1298 322.963 50.5254C316.998 51.7516 309.878 56.9255 304.783 63.7923C299.142 71.4186 295.132 82.8027 296.144 88.2613C296.437 89.7091 297.877 91.6552 299.032 92.1299C300.329 92.6757 301.239 92.5254 303.842 91.4811L303.834 91.4732ZM238.528 65.596C250.054 62.9616 258.297 57.5346 259.017 52.0839C259.199 50.8576 259.089 50.5649 258.187 49.8767C257.316 49.1884 256.85 49.0856 255.299 49.228C252.839 49.4811 248.432 51.364 245.213 53.492C241.233 56.166 235.094 62.9616 233.939 65.9995C233.686 66.6482 234.121 66.6166 238.528 65.6039V65.596Z" fill="black"/>
</svg>
