<svg width="40" height="40" viewBox="0 0 40 40" fill="none" xmlns="http://www.w3.org/2000/svg">
<rect width="40" height="40" rx="10" fill="white"/>
<path d="M21.2048 29.7203C21.2929 29.6362 21.3828 29.5466 21.4742 29.452C22.3343 28.5622 24.6041 29.2201 24.6023 30.4577L24.6022 30.532C24.601 31.2813 24.3382 32.0066 23.8589 32.5826C22.4138 34.3157 20.9198 35.3012 18.8846 35.8333C18.1119 36.0376 15.7717 36.0578 14.9679 35.8737C12.4562 35.2675 11 33.4851 11 31.0134C11 29.4128 11.1626 28.8897 13.2267 23.9688C13.8568 22.4715 14.7831 20.2557 15.2908 19.0457C15.7985 17.8357 16.4509 16.2665 16.7559 15.5593C17.061 14.8522 17.3059 14.2371 17.3059 14.2056C17.3059 14.1742 16.776 14.1226 16.1258 14.1024L14.9456 14.0709L14.6517 13.732C14.3868 13.4356 14.3578 13.3211 14.3578 12.7375C14.3578 12.1538 14.389 12.0393 14.6428 11.7519L14.9367 11.4242L16.7581 11.3321C17.7557 11.2805 18.6085 11.2087 18.6397 11.1683C18.6708 11.1278 19.1986 9.92681 19.7998 8.4923C21.04 5.56941 21.2248 5.29328 22.0977 5.1092C22.7478 4.96552 25.8518 4.96552 26.217 5.09797C26.6445 5.26185 26.7558 5.49757 26.767 6.17554C26.767 6.71881 26.6757 7.00616 25.9431 8.68761C25.4955 9.73375 25.0992 10.6474 25.068 10.708C25.0279 10.8113 25.353 10.8405 26.5131 10.8405C27.8358 10.8405 28.0584 10.8607 28.3434 11.0448C28.8734 11.3725 29.0359 11.8036 28.9936 12.706C28.9535 13.3728 28.9112 13.5367 28.6997 13.7634C28.1497 14.3583 28.0273 14.3785 25.6893 14.3471L23.5428 14.3269L23.1776 15.1687C21.3361 19.4049 19.3232 24.0609 18.6308 25.7109C17.0342 29.525 16.8094 30.203 17.0031 30.7979C17.4395 32.1202 19.1384 31.6801 21.2048 29.7203Z" fill="black"/>
</svg>
